<mxfile host="app.diagrams.net" modified="2021-03-18T14:46:08.451Z" agent="5.0 (X11; Linux x86_64) AppleWebKit/537.36 (KHTML, like Gecko) Chrome/87.0.4280.141 Safari/537.36" etag="_NF7wq6-UfDixitNa00u" version="14.4.9" type="github">
  <diagram id="qcK2ke-T_K43PmsvYksZ" name="Page-1">
    <mxGraphModel dx="1185" dy="672" grid="1" gridSize="10" guides="1" tooltips="1" connect="1" arrows="1" fold="1" page="1" pageScale="1" pageWidth="2000" pageHeight="2000" math="0" shadow="0">
      <root>
        <mxCell id="0" />
        <mxCell id="1" parent="0" />
        <mxCell id="TeGj_DYxlVRWhgEvBAZm-3" value="" style="edgeStyle=orthogonalEdgeStyle;rounded=0;orthogonalLoop=1;jettySize=auto;html=1;" edge="1" parent="1" source="TeGj_DYxlVRWhgEvBAZm-1" target="TeGj_DYxlVRWhgEvBAZm-2">
          <mxGeometry relative="1" as="geometry" />
        </mxCell>
        <mxCell id="TeGj_DYxlVRWhgEvBAZm-1" value="header" style="rounded=0;whiteSpace=wrap;html=1;" vertex="1" parent="1">
          <mxGeometry x="40" y="40" width="120" height="80" as="geometry" />
        </mxCell>
        <mxCell id="TeGj_DYxlVRWhgEvBAZm-5" value="ja" style="edgeStyle=orthogonalEdgeStyle;rounded=0;orthogonalLoop=1;jettySize=auto;html=1;" edge="1" parent="1" source="TeGj_DYxlVRWhgEvBAZm-2" target="TeGj_DYxlVRWhgEvBAZm-10">
          <mxGeometry relative="1" as="geometry" />
        </mxCell>
        <mxCell id="TeGj_DYxlVRWhgEvBAZm-16" value="nej" style="edgeStyle=orthogonalEdgeStyle;rounded=0;orthogonalLoop=1;jettySize=auto;html=1;" edge="1" parent="1" source="TeGj_DYxlVRWhgEvBAZm-2" target="TeGj_DYxlVRWhgEvBAZm-15">
          <mxGeometry relative="1" as="geometry" />
        </mxCell>
        <mxCell id="TeGj_DYxlVRWhgEvBAZm-2" value="POST?" style="rhombus;whiteSpace=wrap;html=1;rounded=0;" vertex="1" parent="1">
          <mxGeometry x="30" y="180" width="140" height="80" as="geometry" />
        </mxCell>
        <mxCell id="TeGj_DYxlVRWhgEvBAZm-25" value="ja" style="edgeStyle=orthogonalEdgeStyle;rounded=0;orthogonalLoop=1;jettySize=auto;html=1;" edge="1" parent="1" source="TeGj_DYxlVRWhgEvBAZm-4" target="TeGj_DYxlVRWhgEvBAZm-24">
          <mxGeometry relative="1" as="geometry" />
        </mxCell>
        <mxCell id="TeGj_DYxlVRWhgEvBAZm-27" value="nej" style="edgeStyle=orthogonalEdgeStyle;rounded=0;orthogonalLoop=1;jettySize=auto;html=1;" edge="1" parent="1" source="TeGj_DYxlVRWhgEvBAZm-4" target="TeGj_DYxlVRWhgEvBAZm-15">
          <mxGeometry relative="1" as="geometry">
            <Array as="points">
              <mxPoint x="240" y="360" />
              <mxPoint x="240" y="360" />
            </Array>
          </mxGeometry>
        </mxCell>
        <mxCell id="TeGj_DYxlVRWhgEvBAZm-4" value="nytt kackel form&lt;br&gt;validerar?" style="rhombus;whiteSpace=wrap;html=1;rounded=0;" vertex="1" parent="1">
          <mxGeometry x="390" y="320" width="140" height="80" as="geometry" />
        </mxCell>
        <mxCell id="TeGj_DYxlVRWhgEvBAZm-13" value="ja" style="edgeStyle=orthogonalEdgeStyle;rounded=0;orthogonalLoop=1;jettySize=auto;html=1;" edge="1" parent="1" source="TeGj_DYxlVRWhgEvBAZm-10" target="TeGj_DYxlVRWhgEvBAZm-12">
          <mxGeometry relative="1" as="geometry" />
        </mxCell>
        <mxCell id="TeGj_DYxlVRWhgEvBAZm-20" value="nej" style="edgeStyle=orthogonalEdgeStyle;rounded=0;orthogonalLoop=1;jettySize=auto;html=1;dashed=1;" edge="1" parent="1" source="TeGj_DYxlVRWhgEvBAZm-10" target="TeGj_DYxlVRWhgEvBAZm-19">
          <mxGeometry relative="1" as="geometry" />
        </mxCell>
        <mxCell id="TeGj_DYxlVRWhgEvBAZm-10" value="채r anv채ndaren&lt;br&gt;inloggad?" style="rhombus;whiteSpace=wrap;html=1;rounded=0;" vertex="1" parent="1">
          <mxGeometry x="210" y="180" width="140" height="80" as="geometry" />
        </mxCell>
        <mxCell id="TeGj_DYxlVRWhgEvBAZm-14" value="ja" style="edgeStyle=orthogonalEdgeStyle;rounded=0;orthogonalLoop=1;jettySize=auto;html=1;" edge="1" parent="1" source="TeGj_DYxlVRWhgEvBAZm-12" target="TeGj_DYxlVRWhgEvBAZm-4">
          <mxGeometry relative="1" as="geometry" />
        </mxCell>
        <mxCell id="TeGj_DYxlVRWhgEvBAZm-22" value="nej" style="edgeStyle=orthogonalEdgeStyle;rounded=0;orthogonalLoop=1;jettySize=auto;html=1;dashed=1;" edge="1" parent="1" source="TeGj_DYxlVRWhgEvBAZm-12" target="TeGj_DYxlVRWhgEvBAZm-21">
          <mxGeometry relative="1" as="geometry" />
        </mxCell>
        <mxCell id="TeGj_DYxlVRWhgEvBAZm-12" value="har anv채ndaren&lt;br&gt;en profil?" style="rhombus;whiteSpace=wrap;html=1;rounded=0;" vertex="1" parent="1">
          <mxGeometry x="390" y="180" width="140" height="80" as="geometry" />
        </mxCell>
        <mxCell id="TeGj_DYxlVRWhgEvBAZm-15" value="visa kackel formet&lt;br&gt;och resten utav&lt;br&gt;sidans body" style="whiteSpace=wrap;html=1;rounded=0;" vertex="1" parent="1">
          <mxGeometry x="40" y="320" width="120" height="80" as="geometry" />
        </mxCell>
        <mxCell id="TeGj_DYxlVRWhgEvBAZm-19" value="/Login" style="whiteSpace=wrap;html=1;rounded=0;" vertex="1" parent="1">
          <mxGeometry x="220" y="40" width="120" height="80" as="geometry" />
        </mxCell>
        <mxCell id="TeGj_DYxlVRWhgEvBAZm-21" value="/Profiles/Profile" style="whiteSpace=wrap;html=1;rounded=0;" vertex="1" parent="1">
          <mxGeometry x="400" y="40" width="120" height="80" as="geometry" />
        </mxCell>
        <mxCell id="TeGj_DYxlVRWhgEvBAZm-26" style="edgeStyle=orthogonalEdgeStyle;rounded=0;orthogonalLoop=1;jettySize=auto;html=1;" edge="1" parent="1" source="TeGj_DYxlVRWhgEvBAZm-24" target="TeGj_DYxlVRWhgEvBAZm-15">
          <mxGeometry relative="1" as="geometry">
            <Array as="points">
              <mxPoint x="100" y="500" />
            </Array>
          </mxGeometry>
        </mxCell>
        <mxCell id="TeGj_DYxlVRWhgEvBAZm-24" value="l채gg till kacklet&lt;br&gt;i databasen" style="whiteSpace=wrap;html=1;rounded=0;" vertex="1" parent="1">
          <mxGeometry x="400" y="460" width="120" height="80" as="geometry" />
        </mxCell>
      </root>
    </mxGraphModel>
  </diagram>
</mxfile>
